<?xml version="1.0" encoding="utf-8"?>
<svg viewBox="32.535 31.135 93.442 92.671" width="93.442" height="92.671" xmlns="http://www.w3.org/2000/svg">
  <g id="layer1">
    <path id="path929" style="fill:#55ddff;stroke:#000000;stroke-width:0.7246;stroke-linecap:butt;stroke-linejoin:miter;stroke-miterlimit:4;stroke-dasharray:none;stroke-opacity:1" d="M 86.682871,77.086724 C 109.38625,68.521596 125.56594,77.115042 121.65497,91.55841 117.6537,105.97703 99.353673,105.11822 84.192019,86.1728 M 79.514818,71.985008 c 0.650784,-24.256571 14.721865,-35.988335 26.615812,-26.908655 11.83691,9.153923 4.1254,25.772025 -19.145071,32.64879 M 71.945672,77.024084 C 49.313794,68.271777 42.983732,51.079921 55.527993,42.922224 68.123055,34.843168 81.190104,47.683766 79.859806,71.912568 M 74.565064,86.177122 C 59.994502,105.58082 41.729607,107.00322 37.285897,92.714765 32.93167,78.39878 48.838807,69.31078 71.795368,77.172129 m 12.180448,9.052365 C 98.355049,105.7704 94.451387,123.66987 79.488492,123.80562 64.525039,123.84775 60.408844,105.99598 74.554671,86.280501"/>
    <path id="path909" style="fill:#80e5ff;stroke:#000000;stroke-width:0.79375;stroke-linecap:butt;stroke-linejoin:miter;stroke-miterlimit:4;stroke-dasharray:none;stroke-opacity:1;fill-opacity:1" d="M 71.11559,82.055581 C 45.961426,90.647148 28.544156,80.678003 33.326398,64.999636 38.206638,49.351498 58.213317,50.925558 74.157445,72.193649 m 5.225743,15.710297 C 79.664361,114.48341 64.741781,127.90212 51.34998,118.4501 38.017579,108.91448 45.778427,90.407343 70.970112,81.926427 m 16.551128,-0.02541 c 25.31355,8.109933 33.34543,26.501076 20.15454,36.231516 -13.251506,9.64772 -28.369589,-3.55033 -28.4789,-30.131056 M 84.384978,72.282861 C 100.04702,50.806189 120.03119,48.968224 125.11752,64.550595 130.10627,80.164479 112.82209,90.362621 87.556724,82.103788 M 74.214804,72.272596 C 58.59091,50.768152 62.98359,31.186287 79.375002,31.135019 95.766414,31.186287 100.15909,50.768152 84.5352,72.272596"/>
    <path style="fill:none;stroke:#000000;stroke-width:0.79375;stroke-linecap:round;stroke-linejoin:miter;stroke-miterlimit:4;stroke-dasharray:none;stroke-opacity:1" d="m 79.375002,59.028368 v 9.307513" id="path875"/>
    <path style="fill:none;stroke:#000000;stroke-width:0.79375;stroke-linecap:round;stroke-linejoin:miter;stroke-miterlimit:4;stroke-dasharray:none;stroke-opacity:1" d="m 98.574107,73.123003 -8.857064,2.860459" id="path899"/>
    <path style="fill:none;stroke:#000000;stroke-width:0.79375;stroke-linecap:round;stroke-linejoin:miter;stroke-miterlimit:4;stroke-dasharray:none;stroke-opacity:1" d="M 91.187818,95.633946 85.68608,88.126571" id="path903"/>
    <path style="fill:none;stroke:#000000;stroke-width:0.79375;stroke-linecap:round;stroke-linejoin:miter;stroke-miterlimit:4;stroke-dasharray:none;stroke-opacity:1" d="m 67.505663,95.711738 5.390862,-7.587384" id="path907"/>
    <path style="fill:none;stroke:#000000;stroke-width:0.79375;stroke-linecap:round;stroke-linejoin:miter;stroke-miterlimit:4;stroke-dasharray:none;stroke-opacity:1" d="m 59.980641,73.220983 8.894043,2.743316" id="path911"/>
    <circle style="fill:#ffdd55;stroke:#000000;stroke-width:0.79375;stroke-linejoin:round;stroke-miterlimit:4;stroke-dasharray:none;stroke-opacity:1" id="path1771" cx="79.375" cy="79.375" r="11.507873"/>
  </g>
</svg>